<svg width="65" height="64" viewBox="0 0 65 64" fill="none" xmlns="http://www.w3.org/2000/svg">
<path d="M9.06172 18.6667L32.2617 32.0001M32.2617 32.0001L55.4617 18.6667M32.2617 32.0001V58.6667M56.2617 21.3334C56.2608 20.3981 56.0139 19.4796 55.5458 18.6698C55.0778 17.8601 54.405 17.1877 53.5951 16.7201L34.9284 6.0534C34.1176 5.5853 33.1979 5.33887 32.2617 5.33887C31.3255 5.33887 30.4058 5.5853 29.5951 6.0534L10.9284 16.7201C10.1184 17.1877 9.44567 17.8601 8.97762 18.6698C8.50957 19.4796 8.26268 20.3981 8.26172 21.3334V42.6667C8.26268 43.602 8.50957 44.5206 8.97762 45.3303C9.44567 46.14 10.1184 46.8124 10.9284 47.2801L29.5951 57.9467C30.4058 58.4148 31.3255 58.6613 32.2617 58.6613C33.1979 58.6613 34.1176 58.4148 34.9284 57.9467L53.5951 47.2801C54.405 46.8124 55.0778 46.14 55.5458 45.3303C56.0139 44.5206 56.2608 43.602 56.2617 42.6667V21.3334Z" stroke="#1B2331" stroke-width="5.33333" stroke-linecap="round" stroke-linejoin="round"/>
</svg>
